<?xml version="1.0" encoding="UTF-8"?>
<svg xmlns="http://www.w3.org/2000/svg" xmlns:xlink="http://www.w3.org/1999/xlink" width="794pt" height="1122pt" viewBox="0 0 794 1122" version="1.1">
<defs>
<radialGradient id="radial0" gradientUnits="userSpaceOnUse" cx="23.857143" cy="40" fx="23.857143" fy="40" r="17.142857" gradientTransform="matrix(23.889472,0,0,12.980301,-184.664625,276.00896)">
<stop offset="0" style="stop-color:rgb(0%,0%,0%);stop-opacity:1;"/>
<stop offset="1" style="stop-color:rgb(0%,0%,0%);stop-opacity:0;"/>
</radialGradient>
<linearGradient id="linear0" gradientUnits="userSpaceOnUse" x1="9.303053" y1="26.71875" x2="38.826412" y2="26.71875" gradientTransform="matrix(21.142907,0,0,21.142907,-149.44117,-46.991167)">
<stop offset="0" style="stop-color:rgb(44.705882%,62.352941%,81.176471%);stop-opacity:1;"/>
<stop offset="0.315789" style="stop-color:rgb(72.941176%,74.117647%,71.372549%);stop-opacity:1;"/>
<stop offset="1" style="stop-color:rgb(20.392157%,39.607843%,64.313725%);stop-opacity:1;"/>
</linearGradient>
<linearGradient id="linear1" gradientUnits="userSpaceOnUse" x1="49.136964" y1="467.2588" x2="747.09593" y2="467.2588" gradientTransform="matrix(0.901337,0,0,1.109462,0.520265,-0.485015)">
<stop offset="0" style="stop-color:rgb(44.705882%,62.352941%,81.176471%);stop-opacity:1;"/>
<stop offset="1" style="stop-color:rgb(12.54902%,29.019608%,52.941176%);stop-opacity:1;"/>
</linearGradient>
<filter id="alpha" filterUnits="objectBoundingBox" x="0%" y="0%" width="100%" height="100%">
  <feColorMatrix type="matrix" in="SourceGraphic" values="0 0 0 0 1 0 0 0 0 1 0 0 0 0 1 0 0 0 1 0"/>
</filter>
<mask id="mask0">
  <g filter="url(#alpha)">
<rect x="0" y="0" width="794" height="1122" style="fill:rgb(0%,0%,0%);fill-opacity:0.545098;stroke:none;"/>
  </g>
</mask>
<linearGradient id="linear2" gradientUnits="userSpaceOnUse" x1="17.160095" y1="14.004482" x2="37.969398" y2="56.575912" gradientTransform="matrix(21.142907,0,0,21.142907,-149.44117,-46.991167)">
<stop offset="0" style="stop-color:rgb(22.352941%,46.666667%,76.470588%);stop-opacity:1;"/>
<stop offset="1" style="stop-color:rgb(53.72549%,68.235294%,86.27451%);stop-opacity:0;"/>
</linearGradient>
<clipPath id="clip1">
  <rect width="794" height="1122"/>
</clipPath>
<g id="surface6" clip-path="url(#clip1)">
<path style="fill:none;stroke-width:21.142906;stroke-linecap:butt;stroke-linejoin:miter;stroke:url(#linear2);stroke-miterlimit:10;" d="M 356.846505 157.789745 C 201.91849 157.789745 75.943168 213.035567 75.943168 280.994081 C 75.943168 285.868928 75.943168 743.727287 75.943168 748.807236 C 75.943168 816.76575 201.91849 872.011573 356.846505 872.011573 C 511.77818 872.011573 642.771725 816.76575 642.771725 748.807236 C 642.771725 744.785762 642.771725 285.015555 642.771725 280.994081 C 642.771725 213.035567 511.77818 157.789745 356.846505 157.789745 Z M 356.846505 157.789745 " transform="matrix(1.067204,0,0,1.06654,0,0)"/>
</g>
<linearGradient id="linear3" gradientUnits="userSpaceOnUse" x1="24" y1="16.525082" x2="24" y2="13.284962" >
<stop offset="0" style="stop-color:rgb(100%,100%,100%);stop-opacity:1;"/>
<stop offset="1" style="stop-color:rgb(44.705882%,62.352941%,81.176471%);stop-opacity:1;"/>
</linearGradient>
<mask id="mask1">
  <g filter="url(#alpha)">
<rect x="0" y="0" width="794" height="1122" style="fill:rgb(0%,0%,0%);fill-opacity:0.494118;stroke:none;"/>
  </g>
</mask>
<linearGradient id="linear4" gradientUnits="userSpaceOnUse" x1="16.07143" y1="19.5" x2="15.785715" y2="30" gradientTransform="matrix(22.563801,0,0,22.549754,-162.707761,9.477887)">
<stop offset="0" style="stop-color:rgb(100%,100%,100%);stop-opacity:1;"/>
<stop offset="1" style="stop-color:rgb(100%,100%,100%);stop-opacity:0;"/>
</linearGradient>
<clipPath id="clip2">
  <rect width="794" height="1122"/>
</clipPath>
<g id="surface9" clip-path="url(#clip2)">
<path style=" stroke:none;fill-rule:nonzero;fill:url(#linear4);" d="M 148.351562 394.433594 L 156.410156 772.949219 L 259.554688 801.941406 L 256.335938 425.039062 C 256.335938 425.039062 303.074219 425.039062 378.824219 420.207031 C 261.136719 414.949219 126.484375 364.402344 80.660156 331.617188 C 112.628906 378.796875 148.351562 394.433594 148.351562 394.433594 Z M 148.351562 394.433594 "/>
</g>
</defs>
<g id="surface1">
<path style=" stroke:none;fill-rule:nonzero;fill:url(#radial0);" d="M 794.804688 795.222656 C 794.851562 918.132812 611.484375 1017.789062 385.269531 1017.789062 C 159.054688 1017.789062 -24.3125 918.132812 -24.265625 795.222656 C -24.3125 672.308594 159.054688 572.652344 385.269531 572.652344 C 611.484375 572.652344 794.851562 672.308594 794.804688 795.222656 Z M 794.804688 795.222656 "/>
<path style="fill-rule:nonzero;fill:url(#linear0);stroke-width:21.142906;stroke-linecap:butt;stroke-linejoin:miter;stroke:url(#linear1);stroke-miterlimit:10;" d="M 356.667152 141.311957 C 190.494805 141.311957 55.379802 200.564603 55.379802 273.456565 C 55.379802 278.686678 55.379802 756.938085 55.379802 762.384289 C 55.379802 835.276251 190.494805 894.528897 356.667152 894.528897 C 522.835839 894.528897 663.335091 835.276251 663.335091 762.384289 C 663.335091 758.069811 663.335091 277.771042 663.335091 273.456565 C 663.335091 200.564603 522.835839 141.311957 356.667152 141.311957 Z M 356.667152 141.311957 " transform="matrix(1.067204,0,0,1.06654,0,0)"/>
<use xlink:href="#surface6" mask="url(#mask0)"/>
<path style="fill-rule:nonzero;fill:rgb(20.392157%,39.607843%,64.313725%);fill-opacity:1;stroke-width:1.004927;stroke-linecap:butt;stroke-linejoin:miter;stroke:url(#linear3);stroke-miterlimit:10;" d="M 36.857197 14.07141 C 36.857197 17.10892 31.100771 19.571374 23.999994 19.571374 C 16.899216 19.571374 11.14279 17.10892 11.14279 14.07141 C 11.14279 11.0339 16.899216 8.571447 23.999994 8.571447 C 31.100771 8.571447 36.857197 11.0339 36.857197 14.07141 Z M 36.857197 14.07141 " transform="matrix(23.405228,0,0,21.526421,-179.678443,-13.168823)"/>
<use xlink:href="#surface9" mask="url(#mask1)"/>
<path style=" stroke:none;fill-rule:nonzero;fill:rgb(12.54902%,29.019608%,52.941176%);fill-opacity:1;" d="M 121.828125 748.277344 L 139 748.277344 L 139 680.292969 L 165.8125 739.5625 C 168.851562 746.691406 173.210938 749.332031 181.664062 749.332031 C 190.117188 749.332031 194.210938 746.691406 197.382812 739.5625 L 224.066406 680.292969 L 224.066406 748.277344 L 241.367188 748.277344 L 241.367188 680.292969 C 241.367188 673.691406 238.726562 670.523438 233.179688 668.808594 C 220.101562 664.847656 211.382812 668.28125 207.421875 677.125 L 181.136719 735.734375 L 155.773438 677.125 C 151.945312 668.28125 143.09375 664.847656 129.882812 668.808594 C 124.46875 670.523438 121.828125 673.691406 121.828125 680.292969 Z M 121.828125 748.277344 "/>
<path style=" stroke:none;fill-rule:nonzero;fill:rgb(12.54902%,29.019608%,52.941176%);fill-opacity:1;" d="M 255.636719 692.964844 L 272.9375 692.964844 L 272.9375 730.324219 C 272.804688 732.433594 273.597656 737.1875 282.976562 737.320312 C 287.863281 737.449219 320.226562 737.320312 320.492188 737.320312 L 320.492188 692.699219 L 337.792969 692.699219 C 337.792969 692.699219 337.792969 753.554688 337.792969 753.820312 C 337.792969 768.867188 319.167969 772.167969 310.453125 772.300781 L 256.03125 772.300781 L 256.03125 760.816406 C 256.164062 760.816406 310.453125 760.816406 310.582031 760.816406 C 321.679688 759.628906 320.359375 754.085938 320.359375 752.234375 L 320.359375 747.746094 L 283.769531 747.746094 C 266.730469 747.617188 255.765625 740.089844 255.636719 731.511719 C 255.636719 730.71875 256.03125 693.230469 255.636719 692.964844 Z M 255.636719 692.964844 "/>
<path style=" stroke:none;fill-rule:nonzero;fill:rgb(12.54902%,29.019608%,52.941176%);fill-opacity:1;" d="M 626.808594 649.664062 C 616.242188 649.402344 608.050781 650.457031 601.183594 653.363281 C 599.199219 654.152344 596.03125 654.15625 595.765625 656.664062 C 596.824219 657.71875 596.953125 659.433594 597.878906 660.886719 C 599.464844 663.527344 602.238281 667.089844 604.75 668.941406 C 607.523438 671.050781 610.296875 673.164062 613.203125 675.011719 C 618.355469 678.179688 624.164062 680.027344 629.183594 683.195312 C 632.09375 685.042969 634.996094 687.421875 637.902344 689.402344 C 639.355469 690.457031 640.28125 692.171875 642.128906 692.832031 C 642.128906 692.699219 642.128906 692.570312 642.128906 692.4375 C 641.203125 691.25 640.941406 689.53125 640.015625 688.210938 C 638.695312 686.890625 637.375 685.703125 636.054688 684.382812 C 632.222656 679.234375 627.46875 674.746094 622.316406 671.050781 C 618.089844 668.148438 608.84375 664.1875 607.125 659.300781 C 607.125 659.300781 606.992188 659.171875 606.863281 659.039062 C 609.769531 658.773438 613.203125 657.71875 615.976562 656.925781 C 620.46875 655.738281 624.5625 656.003906 629.183594 654.816406 C 631.296875 654.285156 633.414062 653.625 635.523438 652.964844 C 635.523438 652.570312 635.523438 652.175781 635.523438 651.777344 C 633.148438 649.402344 631.429688 646.234375 628.921875 643.988281 C 622.183594 638.179688 614.789062 632.503906 607.125 627.753906 C 603.03125 625.113281 597.746094 623.394531 593.386719 621.152344 C 591.804688 620.359375 589.160156 619.964844 588.238281 618.644531 C 585.859375 615.738281 584.539062 611.914062 582.820312 608.480469 C 578.992188 601.21875 575.292969 593.167969 571.988281 585.511719 C 569.613281 580.363281 568.160156 575.214844 565.253906 570.460938 C 551.648438 548.019531 536.855469 534.425781 514.136719 521.089844 C 509.246094 518.320312 503.4375 517.128906 497.226562 515.679688 C 493.925781 515.546875 490.625 515.28125 487.320312 515.148438 C 485.207031 514.226562 483.09375 511.71875 481.246094 510.53125 C 473.714844 505.777344 454.296875 495.480469 448.75 509.078125 C 445.183594 517.660156 454.035156 526.105469 457.070312 530.464844 C 459.320312 533.5 462.222656 536.929688 463.808594 540.363281 C 464.734375 542.605469 464.996094 544.984375 465.921875 547.359375 C 468.035156 553.167969 470.015625 559.636719 472.789062 565.050781 C 474.246094 567.820312 475.828125 570.726562 477.679688 573.234375 C 478.734375 574.683594 480.582031 575.347656 480.980469 577.722656 C 479.132812 580.363281 479 584.324219 477.941406 587.621094 C 473.1875 602.539062 475.035156 621.019531 481.773438 631.976562 C 483.886719 635.277344 488.90625 642.539062 495.640625 639.765625 C 501.585938 637.390625 500.265625 629.863281 501.980469 623.265625 C 502.378906 621.679688 502.113281 620.625 502.90625 619.570312 C 502.90625 619.699219 502.90625 619.832031 502.90625 619.832031 C 504.757812 623.527344 506.605469 627.09375 508.324219 630.789062 C 512.417969 637.257812 519.550781 643.988281 525.492188 648.480469 C 528.664062 650.855469 531.175781 654.945312 535.136719 656.398438 C 535.136719 656.265625 535.136719 656.136719 535.136719 656.003906 C 535.003906 656.003906 535.003906 656.003906 534.871094 656.003906 C 534.078125 654.8125 532.890625 654.285156 531.835938 653.363281 C 529.457031 650.988281 526.816406 648.082031 524.964844 645.441406 C 519.417969 638.050781 514.53125 629.863281 510.171875 621.417969 C 508.058594 617.324219 506.210938 612.835938 504.492188 608.742188 C 503.699219 607.160156 503.699219 604.785156 502.378906 603.992188 C 500.398438 606.894531 497.492188 609.402344 496.039062 612.96875 C 493.53125 618.644531 493.265625 625.640625 492.339844 632.902344 C 491.8125 633.035156 492.074219 632.902344 491.8125 633.164062 C 487.585938 632.109375 486.132812 627.753906 484.546875 624.058594 C 480.582031 614.683594 479.921875 599.636719 483.359375 588.8125 C 484.28125 586.039062 488.246094 577.328125 486.660156 574.6875 C 485.867188 572.179688 483.226562 570.726562 481.773438 568.746094 C 480.054688 566.238281 478.207031 563.070312 477.019531 560.296875 C 473.847656 552.90625 472.261719 544.71875 468.828125 537.328125 C 467.242188 533.894531 464.46875 530.332031 462.222656 527.164062 C 459.714844 523.597656 456.941406 521.089844 454.957031 516.867188 C 454.300781 515.414062 453.375 513.039062 454.429688 511.453125 C 454.695312 510.398438 455.222656 510.003906 456.28125 509.738281 C 457.996094 508.285156 462.882812 510.132812 464.601562 510.925781 C 469.488281 512.90625 473.582031 514.753906 477.679688 517.527344 C 479.527344 518.847656 481.507812 521.355469 483.886719 522.015625 C 484.808594 522.015625 485.734375 522.015625 486.660156 522.015625 C 490.886719 522.9375 495.640625 522.277344 499.605469 523.46875 C 506.605469 525.710938 512.945312 529.011719 518.625 532.574219 C 535.929688 543.53125 550.195312 559.109375 559.839844 577.722656 C 561.421875 580.757812 562.082031 583.53125 563.535156 586.699219 C 566.3125 593.167969 569.746094 599.769531 572.519531 606.105469 C 575.292969 612.308594 577.933594 618.644531 581.894531 623.792969 C 583.878906 626.5625 591.804688 628.015625 595.371094 629.46875 C 598.011719 630.65625 602.105469 631.714844 604.484375 633.164062 C 608.976562 635.9375 613.464844 639.105469 617.691406 642.140625 C 619.808594 643.726562 626.410156 647.027344 626.808594 649.664062 Z M 626.808594 649.664062 "/>
<path style=" stroke:none;fill-rule:nonzero;fill:rgb(0%,32.941176%,41.960784%);fill-opacity:1;" d="M 492.074219 534.949219 C 489.828125 534.949219 488.246094 535.214844 486.660156 535.613281 C 486.660156 535.609375 486.660156 535.742188 486.660156 535.875 C 486.792969 535.875 486.792969 535.875 486.925781 535.875 C 487.980469 537.988281 489.828125 539.441406 491.148438 541.289062 C 492.207031 543.398438 493.132812 545.511719 494.1875 547.625 C 494.320312 547.492188 494.453125 547.359375 494.453125 547.359375 C 496.304688 546.039062 497.226562 543.925781 497.226562 540.761719 C 496.433594 539.835938 496.300781 538.910156 495.640625 537.988281 C 494.847656 536.667969 493.132812 536.007812 492.074219 534.949219 Z M 492.074219 534.949219 "/>
<path style=" stroke:none;fill-rule:nonzero;fill:rgb(96.078431%,47.45098%,0%);fill-opacity:1;" d="M 351.003906 748.277344 L 400.667969 748.277344 C 406.480469 748.277344 412.027344 747.089844 416.519531 744.976562 C 424.050781 741.542969 427.617188 736.921875 427.617188 730.851562 L 427.617188 718.175781 C 427.617188 713.292969 423.519531 708.671875 415.332031 705.503906 C 411.105469 703.921875 405.820312 702.996094 400.667969 702.996094 L 379.800781 702.996094 C 372.796875 702.996094 369.496094 700.882812 368.570312 696.265625 C 368.4375 695.738281 368.4375 695.207031 368.4375 694.679688 L 368.4375 686.890625 C 368.4375 686.496094 368.4375 685.96875 368.570312 685.441406 C 369.496094 681.875 371.34375 680.953125 377.421875 680.292969 C 377.949219 680.292969 378.609375 680.292969 379.007812 680.292969 L 428.277344 680.292969 L 428.277344 668.808594 L 379.929688 668.808594 C 372.929688 668.808594 369.230469 669.203125 365.929688 670.257812 C 355.757812 673.425781 351.265625 678.441406 351.265625 687.289062 L 351.265625 697.320312 C 351.265625 705.109375 359.984375 711.710938 374.78125 713.292969 C 376.363281 713.425781 378.082031 713.425781 379.800781 713.425781 L 397.632812 713.425781 C 398.292969 713.425781 398.953125 713.425781 399.480469 713.558594 C 404.894531 714.085938 407.273438 715.007812 408.859375 716.988281 C 409.914062 718.042969 410.179688 718.96875 410.179688 720.15625 L 410.179688 730.1875 C 410.179688 731.378906 409.386719 732.964844 407.800781 734.28125 C 406.21875 735.601562 403.707031 736.527344 400.40625 736.660156 C 399.746094 736.660156 399.347656 736.789062 398.6875 736.789062 L 351.003906 736.789062 Z M 351.003906 748.277344 "/>
<path style=" stroke:none;fill-rule:nonzero;fill:rgb(96.078431%,47.45098%,0%);fill-opacity:1;" d="M 535.136719 728.34375 C 535.136719 740.089844 543.988281 746.691406 561.6875 748.011719 C 563.402344 748.144531 564.988281 748.277344 566.707031 748.277344 L 611.617188 748.277344 L 611.617188 736.789062 L 566.308594 736.789062 C 556.273438 736.789062 552.441406 734.285156 552.441406 728.210938 L 552.441406 668.808594 L 535.136719 668.808594 Z M 535.136719 728.34375 "/>
<path style=" stroke:none;fill-rule:nonzero;fill:rgb(96.078431%,47.45098%,0%);fill-opacity:1;" d="M 438.578125 728.871094 L 438.578125 687.949219 C 438.578125 677.519531 445.976562 671.183594 460.375 669.203125 C 461.960938 669.070312 463.542969 668.941406 464.996094 668.941406 L 497.753906 668.9375 C 499.472656 668.9375 500.925781 669.070312 502.640625 669.203125 C 517.039062 671.183594 524.304688 677.519531 524.304688 687.949219 L 524.304688 728.871094 C 524.304688 737.316406 521.265625 741.808594 514.132812 744.84375 L 531.042969 760.15625 L 511.097656 760.15625 L 497.359375 747.746094 L 483.488281 748.539062 L 464.996094 748.539062 C 461.960938 748.539062 458.523438 748.144531 454.957031 747.21875 C 443.992188 744.183594 438.578125 738.375 438.578125 728.871094 Z M 457.203125 727.945312 C 457.203125 728.472656 457.46875 729.003906 457.601562 729.664062 C 458.523438 734.414062 463.015625 737.054688 469.882812 737.054688 L 485.46875 737.054688 L 471.203125 724.117188 L 491.152344 724.117188 L 503.699219 735.46875 C 506.078125 734.148438 507.53125 732.304688 508.058594 729.925781 C 508.191406 729.398438 508.191406 728.738281 508.191406 728.210938 L 508.191406 689.003906 C 508.191406 688.476562 508.191406 687.949219 508.058594 687.421875 C 507.132812 682.933594 502.640625 680.421875 495.90625 680.421875 L 469.882812 680.421875 C 462.222656 680.421875 457.203125 683.722656 457.203125 689.003906 Z M 457.203125 727.945312 "/>
<path style=" stroke:none;fill-rule:nonzero;fill:rgb(96.078431%,47.45098%,0%);fill-opacity:1;" d="M 619.542969 748.40625 L 622.050781 748.40625 L 622.050781 738.769531 L 625.355469 738.769531 L 625.355469 736.789062 L 616.109375 736.789062 L 616.109375 738.769531 L 619.542969 738.769531 Z M 638.695312 748.40625 L 641.074219 748.40625 L 641.074219 736.789062 L 637.507812 736.789062 L 634.601562 744.710938 L 631.429688 736.789062 L 627.996094 736.789062 L 627.996094 748.40625 L 630.242188 748.40625 L 630.242188 739.5625 L 630.375 739.5625 L 633.675781 748.40625 L 635.394531 748.40625 L 638.695312 739.5625 Z M 638.695312 748.40625 "/>
</g>
</svg>
